<svg width="249" height="249" viewBox="0 0 249 249" fill="none" xmlns="http://www.w3.org/2000/svg">
<circle cx="124.5" cy="124.5" r="124.5" fill="#101412"/>
<rect x="59" y="58" width="133" height="10" fill="#7598A6"/>
<path d="M59 191C53.4772 191 49 186.523 49 181V68C49 62.4772 53.4772 58 59 58V58V191V191Z" fill="#7598A6"/>
<rect x="59" y="181" width="133" height="10" fill="#7598A6"/>
<rect x="59" y="160" width="121" height="10" fill="#46676C"/>
<rect x="59" y="140" width="133" height="10" fill="#46676C"/>
<rect x="59" y="120" width="121" height="10" fill="#46676C"/>
<rect x="59" y="100" width="133" height="10" fill="#46676C"/>
<rect x="59" y="80" width="121" height="10" fill="#46676C"/>
<path d="M87.3487 82.8083C90.4203 84.0893 92.5354 85.9595 93.694 88.419C94.8944 90.8612 94.8849 93.5443 93.6655 96.4682C92.4584 99.3626 90.6042 101.19 88.1031 101.949C85.6142 102.68 82.834 102.404 79.7624 101.123L78.1626 104.461L72.7135 102.188L75.6329 94.5645L77.6264 95.3959C80.1959 96.4675 82.3164 96.9531 83.9878 96.8527C85.6592 96.7523 86.8706 95.8014 87.622 93.9998C88.1639 92.7002 88.2111 91.5064 87.7635 90.4183C87.3453 89.3424 86.4865 88.5335 85.187 87.9916C83.8284 87.425 82.6112 87.3507 81.5354 87.7688C80.4891 88.1993 79.695 89.0642 79.153 90.3638L73.3052 87.9249C74.027 86.111 75.0823 84.6615 76.4709 83.5764C77.8596 82.4913 79.4881 81.8703 81.3565 81.7134C83.2543 81.5688 85.2518 81.9338 87.3487 82.8083ZM71.0001 113.903C69.8778 113.435 69.0891 112.708 68.634 111.72C68.2208 110.716 68.2298 109.697 68.6609 108.663C69.092 107.629 69.8036 106.921 70.7957 106.537C71.8297 106.136 72.9078 106.17 74.0302 106.638C75.1229 107.094 75.8759 107.824 76.2891 108.828C76.7147 109.803 76.7119 110.807 76.2808 111.841C75.8497 112.875 75.1319 113.598 74.1274 114.011C73.1353 114.395 72.0929 114.359 71.0001 113.903Z" fill="#7598A6"/>
<path d="M130.349 111.808C133.42 113.089 135.535 114.96 136.694 117.419C137.895 119.861 137.885 122.544 136.666 125.468C135.459 128.363 133.604 130.19 131.103 130.949C128.614 131.68 125.834 131.404 122.763 130.123L121.163 133.461L115.714 131.188L118.633 123.564L120.627 124.396C123.196 125.467 125.317 125.953 126.988 125.853C128.659 125.752 129.871 124.801 130.622 123C131.164 121.7 131.211 120.506 130.764 119.418C130.345 118.342 129.487 117.534 128.187 116.992C126.829 116.425 125.611 116.351 124.536 116.769C123.489 117.199 122.695 118.064 122.153 119.364L116.305 116.925C117.027 115.111 118.082 113.662 119.471 112.576C120.86 111.491 122.488 110.87 124.357 110.713C126.254 110.569 128.252 110.934 130.349 111.808ZM114 142.903C112.878 142.435 112.089 141.708 111.634 140.72C111.221 139.716 111.23 138.697 111.661 137.663C112.092 136.629 112.804 135.921 113.796 135.537C114.83 135.136 115.908 135.17 117.03 135.638C118.123 136.094 118.876 136.824 119.289 137.828C119.715 138.803 119.712 139.807 119.281 140.841C118.85 141.875 118.132 142.598 117.128 143.011C116.135 143.395 115.093 143.359 114 142.903Z" fill="#7598A6"/>
<path d="M169.349 136.808C172.42 138.089 174.535 139.96 175.694 142.419C176.895 144.861 176.885 147.544 175.666 150.468C174.459 153.363 172.604 155.19 170.103 155.949C167.614 156.68 164.834 156.404 161.763 155.123L160.163 158.461L154.714 156.188L157.633 148.564L159.627 149.396C162.196 150.467 164.317 150.953 165.988 150.853C167.659 150.752 168.871 149.801 169.622 148C170.164 146.7 170.211 145.506 169.764 144.418C169.345 143.342 168.487 142.534 167.187 141.992C165.829 141.425 164.611 141.351 163.536 141.769C162.489 142.199 161.695 143.064 161.153 144.364L155.305 141.925C156.027 140.111 157.082 138.662 158.471 137.576C159.86 136.491 161.488 135.87 163.357 135.713C165.254 135.569 167.252 135.934 169.349 136.808ZM153 167.903C151.878 167.435 151.089 166.708 150.634 165.72C150.221 164.716 150.23 163.697 150.661 162.663C151.092 161.629 151.804 160.921 152.796 160.537C153.83 160.136 154.908 160.17 156.03 160.638C157.123 161.094 157.876 161.824 158.289 162.828C158.715 163.803 158.712 164.807 158.281 165.841C157.85 166.875 157.132 167.598 156.128 168.011C155.135 168.395 154.093 168.359 153 167.903Z" fill="#7598A6"/>
</svg>
