<svg width="28" height="28" viewBox="0 0 28 28" fill="none" xmlns="http://www.w3.org/2000/svg">
<g clip-path="url(#clip0_5_20)" filter="url(#filter0_d_5_20)">
<path fill-rule="evenodd" clip-rule="evenodd" d="M17.75 10.625H10.25C9.90438 10.625 9.625 10.3438 9.625 10C9.625 9.65625 9.90438 9.375 10.25 9.375H17.75C18.0956 9.375 18.375 9.65625 18.375 10C18.375 10.3438 18.0956 10.625 17.75 10.625ZM14 0C8.47688 0 4 4.475 4 10C4 15.525 8.47688 20 14 20C19.5231 20 24 15.525 24 10C24 4.475 19.5231 0 14 0Z" fill="#7598A6"/>
</g>
<defs>
<filter id="filter0_d_5_20" x="0" y="0" width="28" height="28" filterUnits="userSpaceOnUse" color-interpolation-filters="sRGB">
<feFlood flood-opacity="0" result="BackgroundImageFix"/>
<feColorMatrix in="SourceAlpha" type="matrix" values="0 0 0 0 0 0 0 0 0 0 0 0 0 0 0 0 0 0 127 0" result="hardAlpha"/>
<feOffset dy="4"/>
<feGaussianBlur stdDeviation="2"/>
<feComposite in2="hardAlpha" operator="out"/>
<feColorMatrix type="matrix" values="0 0 0 0 0 0 0 0 0 0 0 0 0 0 0 0 0 0 0.25 0"/>
<feBlend mode="normal" in2="BackgroundImageFix" result="effect1_dropShadow_5_20"/>
<feBlend mode="normal" in="SourceGraphic" in2="effect1_dropShadow_5_20" result="shape"/>
</filter>
<clipPath id="clip0_5_20">
<rect width="20" height="20" fill="white" transform="translate(4)"/>
</clipPath>
</defs>
</svg>
